# OBJ written from C:\Users\KATARSIS\Desktop\ventilation grid.obj
# Units	meters

o ventilation grid
v 12.7271 1.89167 5.93794
v 10.7779 1.89167 4.8664
v 10.7779 2.10527 4.8664
v 10.7779 2.31887 4.8664
v 10.7779 2.53247 4.8664
v 10.7779 2.74607 4.8664
v 10.7779 2.95967 4.8664
v 10.7779 3.17327 4.8664
v 10.7779 3.38687 4.8664
v 12.7271 3.38687 5.93794
v 12.7271 3.17327 5.93794
v 12.7271 2.95967 5.93794
v 12.7271 2.74607 5.93794
v 12.7271 2.53247 5.93794
v 12.7271 2.31887 5.93794
v 12.7271 2.10527 5.93794
v 12.6007 1.9627 5.94838
v 10.8368 1.9627 4.97863
v 10.8368 2.156 4.97863
v 10.8368 2.34931 4.97863
v 10.8368 2.54262 4.97863
v 10.8368 2.73593 4.97863
v 10.8368 2.92924 4.97863
v 10.8368 3.12254 4.97863
v 10.8368 3.31585 4.97863
v 12.6007 3.31585 5.94838
v 12.6007 3.12254 5.94838
v 12.6007 2.92924 5.94838
v 12.6007 2.73593 5.94838
v 12.6007 2.54262 5.94838
v 12.6007 2.34931 5.94838
v 12.6007 2.156 5.94838
v 12.5867 1.9787 5.94067
v 10.8508 1.9787 4.98634
v 10.8508 2.156 4.98634
v 10.8508 2.34931 4.98634
v 10.8508 2.54262 4.98634
v 10.8508 2.73593 4.98634
v 10.8508 2.92924 4.98634
v 10.8508 3.12254 4.98634
v 10.8508 3.29985 4.98634
v 12.5867 3.29985 5.94067
v 12.5867 3.12254 5.94067
v 12.5867 2.92924 5.94067
v 12.5867 2.73593 5.94067
v 12.5867 2.54262 5.94067
v 12.5867 2.34931 5.94067
v 12.5867 2.156 5.94067
v 12.5808 3.12934 5.9374
v 12.5808 3.29305 5.9374
v 10.8568 3.29305 4.98962
v 10.8568 3.12934 4.98962
v 12.5808 2.93604 5.9374
v 12.5808 3.11574 5.9374
v 10.8568 3.11574 4.98962
v 10.8568 2.93604 4.98962
v 12.5808 2.74273 5.9374
v 12.5808 2.92244 5.9374
v 10.8568 2.92244 4.98962
v 10.8568 2.74273 4.98962
v 12.5808 2.54942 5.9374
v 12.5808 2.72913 5.9374
v 10.8568 2.72913 4.98962
v 10.8568 2.54942 4.98962
v 12.5808 2.35611 5.9374
v 12.5808 2.53582 5.9374
v 10.8568 2.53582 4.98962
v 10.8568 2.35611 4.98962
v 12.5808 2.1628 5.9374
v 12.5808 2.34251 5.9374
v 10.8568 2.34251 4.98962
v 10.8568 2.1628 4.98962
v 12.5808 1.9855 5.9374
v 12.5808 2.1492 5.9374
v 10.8568 2.1492 4.98962
v 10.8568 1.9855 4.98962
v 12.5573 3.1454 5.98006
v 12.6042 3.277 5.89473
v 10.8802 3.277 4.94695
v 10.8333 3.1454 5.03229
v 12.555 2.95366 5.98423
v 12.6065 3.09812 5.89056
v 10.8825 3.09812 4.94278
v 10.831 2.95366 5.03645
v 12.555 2.76035 5.98423
v 12.6065 2.90481 5.89056
v 10.8825 2.90481 4.94278
v 10.831 2.76035 5.03645
v 12.555 2.56704 5.98423
v 12.6065 2.7115 5.89056
v 10.8825 2.7115 4.94278
v 10.831 2.56704 5.03646
v 12.555 2.37374 5.98423
v 12.6065 2.5182 5.89056
v 10.8825 2.5182 4.94278
v 10.831 2.37374 5.03645
v 12.555 2.18043 5.98423
v 12.6065 2.32489 5.89056
v 10.8825 2.32489 4.94278
v 10.831 2.18043 5.03645
v 12.5573 2.00155 5.98006
v 12.6042 2.13315 5.89473
v 10.8802 2.13315 4.94695
v 10.8333 2.00155 5.03229
v 12.5658 2.01047 5.96457
v 12.6127 2.12006 5.87923
v 10.8887 2.12006 4.93146
v 10.8418 2.01047 5.01679
v 12.5635 2.18934 5.96874
v 12.615 2.3118 5.87506
v 10.891 2.3118 4.92729
v 10.8395 2.18934 5.02096
v 12.5635 2.38265 5.96874
v 12.615 2.50511 5.87506
v 10.891 2.50511 4.92729
v 10.8395 2.38265 5.02096
v 12.5635 2.57596 5.96874
v 12.615 2.69842 5.87506
v 10.891 2.69842 4.92729
v 10.8395 2.57596 5.02096
v 12.5635 2.76927 5.96874
v 12.615 2.89173 5.87506
v 10.891 2.89173 4.92729
v 10.8395 2.76927 5.02096
v 12.5635 2.96257 5.96874
v 12.615 3.08503 5.87506
v 10.891 3.08503 4.92729
v 10.8395 2.96257 5.02096
v 12.5658 3.15431 5.96457
v 12.6127 3.26391 5.87923
v 10.8887 3.26391 4.93146
v 10.8418 3.15431 5.01679
vn -0.343113 -0.70196 0.62412
vn -0.6405 8.82434e-006 0.767958
vn -0.714015 0 0.700131
vn -0.885609 0 0.464432
vn -0.885609 0 0.464433
vn -0.343112 0.701962 0.624118
vn -0.305195 8.82431e-006 0.95229
vn -0.208528 0 0.978016
vn 0.0823972 0 0.9966
vn 0.0823972 0 0.9966
vn -0.481765 3.8453e-006 0.8763
vn -0.48175 3.8453e-006 0.876309
vn -0.481769 -1.46228e-005 0.876298
vn -0.481765 -1.30418e-005 0.8763
vn -0.48175 -1.30418e-005 0.876309
vn -0.481749 -1.46228e-005 0.876309
vn -0.481788 -5.04713e-006 0.876288
vn -0.481758 -5.04713e-006 0.876304
vn -0.481788 -3.88214e-005 0.876288
vn -0.481758 -3.88214e-005 0.876304
vn -0.481758 -5.04713e-006 0.876304
vn -0.481758 -3.88214e-005 0.876304
vn -0.481788 -5.04713e-006 0.876288
vn -0.481788 -3.88214e-005 0.876288
vn 0.293703 -0.792668 -0.534244
vn 0.360136 -0.664203 -0.655085
vn 0.295381 -0.789976 -0.537296
vn 0.362936 -0.657604 -0.660178
vn 0.295377 -0.789983 -0.537289
vn 0.362935 -0.657605 -0.660177
vn 0.8763 1.21035e-005 0.481766
vn 0.286562 0.803851 -0.521254
vn -0.876328 3.97606e-005 -0.481715
vn 0.216838 -0.892978 -0.394427
vn -0.38726 0.594825 0.704423
vn 0.876318 -1.97427e-005 0.481734
vn 0.286557 0.803858 -0.521246
vn -0.876299 -1.22857e-005 -0.481768
vn 0.216842 -0.892973 -0.394435
vn -0.387262 0.594819 0.704428
vn 0.876318 -1.8616e-005 0.481733
vn -0.876341 6.6855e-005 -0.481691
vn 0.216834 -0.892982 -0.394419
vn -0.387261 0.594823 0.704425
vt 1 0.666667
vt 0.75 0.666667
vt 0.75 0.333333
vt 1 0.333333
vt 0.714286 0.666667
vt 0.714286 0.333333
vt 0.678571 0.666667
vt 0.678571 0.333333
vt 0.642857 0.666667
vt 0.642857 0.333333
vt 0.607143 0.666667
vt 0.607143 0.333333
vt 0.571429 0.666667
vt 0.571429 0.333333
vt 0.535714 0.666667
vt 0.535714 0.333333
vt 0.5 0.666667
vt 0.5 0.333333
vt 0.25 0.666667
vt 0.25 0.333333
vt 0.214286 0.666667
vt 0.214286 0.333333
vt 0.178571 0.666667
vt 0.178571 0.333333
vt 0.142857 0.666667
vt 0.142857 0.333333
vt 0.107143 0.666667
vt 0.107143 0.333333
vt 0.0714285 0.666667
vt 0.0714285 0.333333
vt 0.0357143 0.666667
vt 0.0357143 0.333333
vt 0 0.666667
vt 0 0.333333
vt 0.5 1
vt 0.25 1
vt 0.252773 0.997227
vt 0.497227 0.997227
vt 0.25 0.952381
vt 0.252773 0.952381
vt 0.25 0.904762
vt 0.252773 0.904762
vt 0.25 0.857143
vt 0.252773 0.857143
vt 0.25 0.809524
vt 0.252773 0.809524
vt 0.25 0.761905
vt 0.252773 0.761905
vt 0.25 0.714286
vt 0.252773 0.714286
vt 0.252773 0.669439
vt 0.497227 0.669439
vt 0.5 0.714286
vt 0.497227 0.714286
vt 0.5 0.761905
vt 0.497227 0.761905
vt 0.5 0.809524
vt 0.497227 0.809524
vt 0.5 0.857143
vt 0.497227 0.857143
vt 0.5 0.904762
vt 0.497227 0.904762
vt 0.5 0.952381
vt 0.497227 0.952381
vt 0.253684 0.713374
vt 0.496316 0.713374
vt 0.253684 0.670351
vt 0.496316 0.670351
vt 0.253686 0.760991
vt 0.496314 0.760991
vt 0.253686 0.715199
vt 0.496314 0.715199
vt 0.253686 0.80861
vt 0.496314 0.80861
vt 0.253686 0.762818
vt 0.496314 0.762818
vt 0.253686 0.856229
vt 0.496314 0.856229
vt 0.253686 0.810437
vt 0.496314 0.810437
vt 0.253686 0.903848
vt 0.496314 0.903848
vt 0.253686 0.858056
vt 0.496314 0.858056
vt 0.253686 0.951468
vt 0.496314 0.951468
vt 0.253686 0.905675
vt 0.496314 0.905675
vt 0.253684 0.996316
vt 0.496316 0.996316
vt 0.253684 0.953292
vt 0.496316 0.953292
mtllib ventilation grid.mtl
usemtl Default
g Default
f 17/1/1 18/2/1 2/3/1 1/4/1
f 18/2/2 19/5/3 3/6/4 2/3/4
f 19/5/3 20/7/3 4/8/4 3/6/4
f 20/7/3 21/9/3 5/10/5 4/8/4
f 21/9/3 22/11/3 6/12/5 5/10/5
f 22/11/3 23/13/3 7/14/4 6/12/5
f 23/13/3 24/15/3 8/16/4 7/14/4
f 24/15/3 25/17/2 9/18/4 8/16/4
f 25/17/6 26/19/6 10/20/6 9/18/6
f 26/19/7 27/21/8 11/22/9 10/20/9
f 27/21/8 28/23/8 12/24/9 11/22/9
f 28/23/8 29/25/8 13/26/10 12/24/9
f 29/25/8 30/27/8 14/28/10 13/26/10
f 30/27/8 31/29/8 15/30/9 14/28/10
f 31/29/8 32/31/8 16/32/9 15/30/9
f 32/31/8 17/33/7 1/34/9 16/32/9
f 18/35/2 17/36/7 33/37/11 34/38/12
f 17/36/7 32/39/8 48/40/13 33/37/11
f 32/39/8 31/41/8 47/42/13 48/40/13
f 31/41/8 30/43/8 46/44/13 47/42/13
f 30/43/8 29/45/8 45/46/13 46/44/13
f 29/45/8 28/47/8 44/48/13 45/46/13
f 28/47/8 27/49/8 43/50/13 44/48/13
f 27/49/8 26/19/7 42/51/14 43/50/13
f 26/19/7 25/17/2 41/52/15 42/51/14
f 25/17/2 24/53/3 40/54/16 41/52/15
f 24/53/3 23/55/3 39/56/16 40/54/16
f 23/55/3 22/57/3 38/58/16 39/56/16
f 22/57/3 21/59/3 37/60/16 38/58/16
f 21/59/3 20/61/3 36/62/16 37/60/16
f 20/61/3 19/63/3 35/64/16 36/62/16
f 19/63/3 18/35/2 34/38/12 35/64/16
f 40/54/16 43/50/13 49/65/17 52/66/18
f 43/50/13 42/51/14 50/67/19 49/65/17
f 42/51/14 41/52/15 51/68/20 50/67/19
f 41/52/15 40/54/16 52/66/18 51/68/20
f 39/56/16 44/48/13 53/69/17 56/70/21
f 44/48/13 43/50/13 54/71/19 53/69/17
f 43/50/13 40/54/16 55/72/22 54/71/19
f 40/54/16 39/56/16 56/70/21 55/72/22
f 38/58/16 45/46/13 57/73/17 60/74/21
f 45/46/13 44/48/13 58/75/19 57/73/17
f 44/48/13 39/56/16 59/76/22 58/75/19
f 39/56/16 38/58/16 60/74/21 59/76/22
f 37/60/16 46/44/13 61/77/23 64/78/18
f 46/44/13 45/46/13 62/79/24 61/77/23
f 45/46/13 38/58/16 63/80/20 62/79/24
f 38/58/16 37/60/16 64/78/18 63/80/20
f 36/62/16 47/42/13 65/81/17 68/82/21
f 47/42/13 46/44/13 66/83/19 65/81/17
f 46/44/13 37/60/16 67/84/22 66/83/19
f 37/60/16 36/62/16 68/82/21 67/84/22
f 35/64/16 48/40/13 69/85/17 72/86/21
f 48/40/13 47/42/13 70/87/19 69/85/17
f 47/42/13 36/62/16 71/88/22 70/87/19
f 36/62/16 35/64/16 72/86/21 71/88/22
f 34/38/12 33/37/11 73/89/17 76/90/18
f 33/37/11 48/40/13 74/91/19 73/89/17
f 48/40/13 35/64/16 75/92/20 74/91/19
f 35/64/16 34/38/12 76/90/18 75/92/20
f 129/65/25 132/66/25 131/68/26 130/67/26
f 125/69/27 128/70/27 127/72/28 126/71/28
f 121/73/27 124/74/27 123/76/28 122/75/28
f 117/77/29 120/78/29 119/80/30 118/79/30
f 113/81/27 116/82/27 115/84/28 114/83/28
f 109/85/27 112/86/27 111/88/28 110/87/28
f 105/89/25 108/90/25 107/92/26 106/91/26
f 106/91/31 102/91/31 101/89/31 105/89/31
f 107/92/32 103/92/32 102/91/32 106/91/32
f 108/90/33 104/90/33 103/92/33 107/92/33
f 105/89/25 101/89/34 104/90/34 108/90/25
f 101/89/35 102/91/35 103/92/35 104/90/35
f 110/87/36 98/87/36 97/85/36 109/85/36
f 111/88/37 99/88/37 98/87/37 110/87/37
f 112/86/38 100/86/38 99/88/38 111/88/38
f 109/85/27 97/85/39 100/86/39 112/86/27
f 97/85/40 98/87/40 99/88/40 100/86/40
f 114/83/36 94/83/36 93/81/36 113/81/36
f 115/84/37 95/84/37 94/83/37 114/83/37
f 116/82/38 96/82/38 95/84/38 115/84/38
f 113/81/27 93/81/39 96/82/39 116/82/27
f 93/81/40 94/83/40 95/84/40 96/82/40
f 118/79/41 90/79/41 89/77/41 117/77/41
f 119/80/37 91/80/37 90/79/37 118/79/37
f 120/78/42 92/78/42 91/80/42 119/80/42
f 117/77/29 89/77/43 92/78/43 120/78/29
f 89/77/44 90/79/44 91/80/44 92/78/44
f 122/75/36 86/75/36 85/73/36 121/73/36
f 123/76/37 87/76/37 86/75/37 122/75/37
f 124/74/38 88/74/38 87/76/38 123/76/38
f 121/73/27 85/73/39 88/74/39 124/74/27
f 85/73/40 86/75/40 87/76/40 88/74/40
f 126/71/36 82/71/36 81/69/36 125/69/36
f 127/72/37 83/72/37 82/71/37 126/71/37
f 128/70/38 84/70/38 83/72/38 127/72/38
f 125/69/27 81/69/39 84/70/39 128/70/27
f 81/69/40 82/71/40 83/72/40 84/70/40
f 130/67/31 78/67/31 77/65/31 129/65/31
f 131/68/32 79/68/32 78/67/32 130/67/32
f 132/66/33 80/66/33 79/68/33 131/68/33
f 129/65/25 77/65/34 80/66/34 132/66/25
f 77/65/35 78/67/35 79/68/35 80/66/35
